<svg fill="none" height="17" viewBox="0 0 17 17" width="17" xmlns="http://www.w3.org/2000/svg"><path d="m16.0742 8.50287c.0018.40667-.0686.80967-.207 1.18558-.1383.37595-.3419.71725-.5988 1.00415l-4.2087 4.714c-.4778.5374-1.11535.8586-1.79091.9022-.67556.0437-1.3418-.1932-1.87153-.6654s-.88583-1.1467-1.00032-1.8946c-.11449-.748.02065-1.517.37962-2.1603h-3.92462c-.36962.0149-.73813-.0539-1.08353-.2023-.3454-.1483-.6606-.3732-.926781-.6612-.266185-.288-.477899-.6332-.622501-1.015-.1446023-.38178-.219128-.79233-.219128-1.20713s.0745257-.82534.219128-1.20713c.144602-.38178.356316-.72697.622501-1.01497.266181-.28799.581381-.51288.926781-.66124s.71391-.21714 1.08353-.20225h3.92462c-.3606-.6433-.49703-1.41313-.38317-2.16218.11387-.74905.47002-1.42471 1.00031-1.89767.53029-.472967 1.19747-.710019 1.87386-.665795s1.31454.366615 1.79214.905485l4.2087 4.71598c.2569.287.4604.62835.5987 1.00425s.2088.77887.2071 1.18552zm-8.11546 4.71993c.00023.2562.06813.5065.19511.7193.12699.2129.30738.3788.51839.4768s.44317.1236.66717.0737c.22401-.0498.4298-.1731.5914-.354l4.20859-4.72001c.2165-.24332.3381-.573.3381-.91671 0-.34372-.1216-.6734-.3381-.91672l-4.20859-4.71996c-.21696-.24276-.51092-.3791-.8174-.3791s-.60045.13634-.81741.3791c-.21592.24324-.33714.57249-.33714.91572s.12122.67248.33714.91572l2.2383 2.51028h-7.68236c-.1569-.00976-.31393.01647-.46148.07708-.14756.06062-.28253.15435-.39669.27546-.11415.12112-.20508.26707-.26722.42894-.06214.16186-.09419.33625-.09419.51248s.03205.35061.09419.51248.15307.30782.26722.42894c.11416.12111.24913.21484.39669.27546.14755.06061.30458.08684.46148.07708h7.68236l-2.2383 2.51226c-.10749.12-.19266.2627-.25056.4199-.05789.1572-.08736.3257-.0867.4958z" fill="#4e4c4c"/></svg>