<svg width="18" height="18" viewBox="0 0 18 18" fill="none" xmlns="http://www.w3.org/2000/svg">
<path d="M4.33008 7.93164C4.33008 5.92847 4.33008 4.92618 4.9527 4.30427C5.57462 3.68164 6.57691 3.68164 8.58008 3.68164H10.7051C12.7082 3.68164 13.7105 3.68164 14.3325 4.30427C14.9551 4.92618 14.9551 5.92847 14.9551 7.93164V11.4733C14.9551 13.4765 14.9551 14.4788 14.3325 15.1007C13.7105 15.7233 12.7082 15.7233 10.7051 15.7233H8.58008C6.57691 15.7233 5.57462 15.7233 4.9527 15.1007C4.33008 14.4788 4.33008 13.4765 4.33008 11.4733V7.93164Z" stroke="#919191" stroke-width="1.0625"/>
<path opacity="0.5" d="M4.33008 13.5983C3.76649 13.5983 3.22599 13.3744 2.82748 12.9759C2.42896 12.5774 2.20508 12.0369 2.20508 11.4733V7.22331C2.20508 4.55218 2.20508 3.21627 3.03524 2.38681C3.86541 1.55735 5.20062 1.55664 7.87174 1.55664H10.7051C11.2687 1.55664 11.8092 1.78052 12.2077 2.17904C12.6062 2.57755 12.8301 3.11806 12.8301 3.68164" stroke="#919191" stroke-width="1.0625"/>
</svg>
