<svg fill="none" height="32" viewBox="0 0 376 32" width="376" xmlns="http://www.w3.org/2000/svg" xmlns:xlink="http://www.w3.org/1999/xlink"><clipPath id="a"><path d="m.102539.838867h375.336v30.5525h-375.336z"/></clipPath><g clip-path="url(#a)"><path d="m15.7938 31.3915c-8.39094 0-15.282584-6.3751-15.673152-14.5141-.2015836-4.2206 1.285092-8.2397 4.195462-11.28866 2.91036-3.06155 6.84129-4.749812 11.04929-4.749812h38.4521v6.929442h-42.509c-2.45676 0-4.46 2.00323-4.46 4.46003v7.7484c0 2.4568 2.00324 4.46 4.46 4.46h42.5216v6.9295h-38.0363z" fill="#9dcb3b"/><path d="m60.7966 19.5987v-6.9672h20.6246c1.3355 0 2.4316 1.0961 2.4316 2.4316v2.104c0 1.3481-1.0961 2.4316-2.4316 2.4316z" fill="#9dcb3b"/><g fill="#191818"><path d="m110.639 27.7755c-3.654 0-6.804-1.1087-9.122-3.1875-2.4065-2.1293-3.7294-5.1908-3.7294-8.6303s1.3229-6.4885 3.7294-8.65552c2.293-2.06624 5.455-3.16235 9.122-3.16235h12.8v5.27897h-12.8c-2.356 0-4.297.6174-5.632 1.7891-1.273 1.1465-1.978 2.8347-1.978 4.7372 0 1.9024.705 3.5529 1.965 4.6994 1.361 1.1969 3.314 1.8268 5.632 1.8268h12.801v5.279h-12.801z"/><path d="m150.88 27.7755-5.796-8.2397-8.491-.0252v8.2649h-5.279v-13.5691h5.291l.403.0252 12.839.0252c.693 0 1.297-.2646 1.713-.756.429-.4031.681-.9953.681-1.6756 0-.6804-.252-1.2851-.719-1.7009-.403-.44094-1.008-.69292-1.688-.69292h-18.533v-5.27898h18.533c2.041 0 3.981.80634 5.443 2.26782 1.424 1.42369 2.23 3.38913 2.23 5.40498 0 2.0158-.794 3.9939-2.23 5.4427-.945.945-2.142 1.6253-3.452 1.9907l-.58.1512 5.871 8.3531h-6.249z"/><path d="m304.285 27.7755-5.796-8.2397-8.491-.0252v8.2649h-5.279v-13.5691h5.291l.403.0252 12.839.0252c.693 0 1.297-.2646 1.713-.756.441-.4031.681-.9827.681-1.6756 0-.693-.252-1.2851-.719-1.7009-.403-.44094-1.007-.69292-1.688-.69292h-18.533v-5.27898h18.533c2.041 0 3.981.80634 5.443 2.26782 1.461 1.46148 2.243 3.38913 2.243 5.40498 0 2.0158-.794 3.9939-2.243 5.4427-.945.945-2.142 1.6253-3.452 1.9907l-.58.1512 5.871 8.3531h-6.249z"/><path d="m170.42 4.1524h-5.279v23.6105h5.279z"/><path d="m200.533 27.7755-7.333-9.8272-8.807 9.8272h-5.569v-23.6231h5.279v15.333l13.645-15.333h7.9l-8.744 9.6886 10.47 13.9345z"/><path d="m224.76 27.7755-13.317-23.6231h6.022l10.773 19.1631 10.784-19.1631h6.023l-13.318 23.6231z"/><path d="m252.301 27.7755v-14.4384l23.938.0252v5.2411h-18.659v3.8931h18.634v5.279h-23.9zm0-23.6231h24.077v5.25378h-24.077z"/><path d="m351.342 27.7755v-14.4384l23.938.0252v5.2411h-18.659v3.8931h18.634v5.279h-23.901zm0-23.6231h24.076v5.25378h-24.076z"/><path d="m333.124 18.6413h-8.164c-1.915 0-3.805-.7811-5.166-2.1544-1.386-1.3859-2.179-3.2632-2.179-5.1656 0-1.90245.793-3.7545 2.179-5.14039 1.361-1.38588 3.2-2.15442 5.166-2.15442h18.684v5.01439h-18.684c-.643 0-1.172.21419-1.651.65515-.441.44097-.68 1.02047-.68 1.62527 0 .6047.227 1.1717.668 1.6127.466.4661 1.02.6929 1.663.6929h2.129l1.487-.0504h8.151c1.915 0 3.805.7812 5.166 2.1544 1.386 1.3859 2.179 3.2632 2.179 5.1656 0 1.9025-.793 3.7545-2.179 5.1404-1.361 1.3859-3.2 2.1544-5.166 2.1544h-18.684v-5.0144h18.684c.643 0 1.172-.2141 1.651-.6551.441-.441.68-1.0205.68-1.6253 0-.6047-.227-1.1717-.668-1.6126-.466-.4662-1.02-.693-1.663-.693h-2.129l-1.487.0504z"/></g></g></svg>