<svg width="99" height="38" viewBox="0 0 99 38" fill="none" xmlns="http://www.w3.org/2000/svg">
<path d="M49.342 14.3097H51.1635V14.7728C51.1635 15.6218 50.8547 16.3318 50.2373 16.9339C49.6198 17.5359 48.8789 17.8292 47.999 17.8292C47.1191 17.8292 46.3782 17.5359 45.7607 16.9339C45.1433 16.3318 44.8345 15.6218 44.8345 14.7882V9.74047C44.8345 8.92234 45.1433 8.21227 45.7607 7.61025C46.3936 7.00822 47.1346 6.71493 47.9836 6.71493C50.2836 6.71493 51.0863 8.53643 51.0863 9.86397H49.2339C49.2339 9.12302 48.7863 8.47469 47.999 8.47469C47.258 8.47469 46.7332 9.01496 46.7332 9.69417V14.8345C46.7332 15.5909 47.2735 16.0694 47.999 16.0694C48.6936 16.0694 49.342 15.5909 49.342 14.7728V14.3097ZM60.5737 17.6748H58.5361L57.0542 14.0009H56.0662V17.6748H54.2139V6.8693H57.4709C58.2273 6.8693 58.8448 7.11628 59.3388 7.61025C59.8327 8.10421 60.0797 8.72167 60.0797 9.47806V11.4076C60.0797 12.2875 59.6166 13.1365 58.8757 13.615L60.5737 17.6748ZM58.1965 11.4694V9.40087C58.1965 9.01496 57.8569 8.67536 57.4401 8.67536H56.0662V12.1949H57.4401C57.8569 12.1949 58.1965 11.8553 58.1965 11.4694ZM62.7442 6.8693H64.7818L66.4026 10.574L68.008 6.8693H70.061L67.3442 12.6117V17.6748H65.4455V12.6117L62.7442 6.8693ZM76.2142 14.1707H74.8249V17.6748H72.9879V6.8693H76.2142C76.9397 6.8693 77.5417 7.11628 78.0511 7.62568C78.5605 8.13508 78.8229 8.75254 78.8229 9.47806V11.5465C78.8229 12.2875 78.5759 12.9049 78.0665 13.4143C77.5571 13.9237 76.9397 14.1707 76.2142 14.1707ZM76.9551 11.67V9.40087C76.9551 8.98409 76.6155 8.67536 76.1833 8.67536H74.8249V12.3801H76.1833C76.6155 12.3801 76.9551 12.0559 76.9551 11.67ZM83.9572 8.67536H81.7189V6.8693H88.0942V8.67536H85.8405V17.6748H83.9572V8.67536ZM97.3655 9.74047V14.8036C97.3655 15.6372 97.0567 16.3473 96.4393 16.9493C95.8372 17.5359 95.0809 17.8292 94.1701 17.8292C93.2594 17.8292 92.503 17.5359 91.8855 16.9339C91.2681 16.3318 90.9593 15.6218 90.9593 14.7882V9.74047C90.9593 8.90691 91.2681 8.19683 91.8855 7.61025C92.503 7.00822 93.2594 6.71493 94.1701 6.71493C95.0809 6.71493 95.8372 7.00822 96.4393 7.61025C97.0567 8.19683 97.3655 8.90691 97.3655 9.74047ZM95.5285 14.8962V9.64786C95.5285 9.01496 94.9111 8.45925 94.1701 8.45925C93.4292 8.45925 92.8117 9.01496 92.8117 9.64786V14.8808C92.8117 15.5137 93.4292 16.0849 94.1701 16.0849C94.9111 16.0849 95.5285 15.5291 95.5285 14.8962Z" fill="black"/>
<path d="M49.342 14.3097H51.1635V14.7728C51.1635 15.6218 50.8547 16.3318 50.2373 16.9339C49.6198 17.5359 48.8789 17.8292 47.999 17.8292C47.1191 17.8292 46.3782 17.5359 45.7607 16.9339C45.1433 16.3318 44.8345 15.6218 44.8345 14.7882V9.74047C44.8345 8.92234 45.1433 8.21227 45.7607 7.61025C46.3936 7.00822 47.1346 6.71493 47.9836 6.71493C50.2836 6.71493 51.0863 8.53643 51.0863 9.86397H49.2339C49.2339 9.12302 48.7863 8.47469 47.999 8.47469C47.258 8.47469 46.7332 9.01496 46.7332 9.69417V14.8345C46.7332 15.5909 47.2735 16.0694 47.999 16.0694C48.6936 16.0694 49.342 15.5909 49.342 14.7728V14.3097ZM60.5737 17.6748H58.5361L57.0542 14.0009H56.0662V17.6748H54.2139V6.8693H57.4709C58.2273 6.8693 58.8448 7.11628 59.3388 7.61025C59.8327 8.10421 60.0797 8.72167 60.0797 9.47806V11.4076C60.0797 12.2875 59.6166 13.1365 58.8757 13.615L60.5737 17.6748ZM58.1965 11.4694V9.40087C58.1965 9.01496 57.8569 8.67536 57.4401 8.67536H56.0662V12.1949H57.4401C57.8569 12.1949 58.1965 11.8553 58.1965 11.4694ZM62.7442 6.8693H64.7818L66.4026 10.574L68.008 6.8693H70.061L67.3442 12.6117V17.6748H65.4455V12.6117L62.7442 6.8693ZM76.2142 14.1707H74.8249V17.6748H72.9879V6.8693H76.2142C76.9397 6.8693 77.5417 7.11628 78.0511 7.62568C78.5605 8.13508 78.8229 8.75254 78.8229 9.47806V11.5465C78.8229 12.2875 78.5759 12.9049 78.0665 13.4143C77.5571 13.9237 76.9397 14.1707 76.2142 14.1707ZM76.9551 11.67V9.40087C76.9551 8.98409 76.6155 8.67536 76.1833 8.67536H74.8249V12.3801H76.1833C76.6155 12.3801 76.9551 12.0559 76.9551 11.67ZM83.9572 8.67536H81.7189V6.8693H88.0942V8.67536H85.8405V17.6748H83.9572V8.67536ZM97.3655 9.74047V14.8036C97.3655 15.6372 97.0567 16.3473 96.4393 16.9493C95.8372 17.5359 95.0809 17.8292 94.1701 17.8292C93.2594 17.8292 92.503 17.5359 91.8855 16.9339C91.2681 16.3318 90.9593 15.6218 90.9593 14.7882V9.74047C90.9593 8.90691 91.2681 8.19683 91.8855 7.61025C92.503 7.00822 93.2594 6.71493 94.1701 6.71493C95.0809 6.71493 95.8372 7.00822 96.4393 7.61025C97.0567 8.19683 97.3655 8.90691 97.3655 9.74047ZM95.5285 14.8962V9.64786C95.5285 9.01496 94.9111 8.45925 94.1701 8.45925C93.4292 8.45925 92.8117 9.01496 92.8117 9.64786V14.8808C92.8117 15.5137 93.4292 16.0849 94.1701 16.0849C94.9111 16.0849 95.5285 15.5291 95.5285 14.8962Z" fill="black"/>
<path d="M50.0295 29.0698L50.1985 24.4928V19.9926H51.9648V24.6618L51.3965 30.744H48.9698L48.3554 26.5663H48.1557L47.5567 30.744H45.13L44.5463 24.6618V19.9926H46.3126V24.4928L46.4816 29.0698H46.712L47.3878 24.7232H49.1233L49.7991 29.0698H50.0295ZM54.708 30.744V19.9926H60.1912V21.7896H56.5358V24.2471H59.8687V26.0287H56.5358V28.9469H60.2987V30.744H54.708ZM63.9175 30.744V19.9926H69.4007V21.7896H65.7452V24.2471H69.0781V26.0287H65.7452V28.9469H69.5082V30.744H63.9175ZM72.7737 19.9926H74.6168V24.9229L77.75 19.9926H79.7006L76.4138 25.0611L79.931 30.744H77.8575L74.6168 25.2147V30.744H72.7737V19.9926ZM82.5975 30.744V19.9926H84.4406V28.9469H88.5721V30.744H82.5975ZM90.6703 19.9926H92.6977L94.3104 23.6788L95.9078 19.9926H97.9505L95.2473 25.7062V30.744H93.3582V25.7062L90.6703 19.9926Z" fill="black"/>
<path d="M50.0295 29.0698L50.1985 24.4928V19.9926H51.9648V24.6618L51.3965 30.744H48.9698L48.3554 26.5663H48.1557L47.5567 30.744H45.13L44.5463 24.6618V19.9926H46.3126V24.4928L46.4816 29.0698H46.712L47.3878 24.7232H49.1233L49.7991 29.0698H50.0295ZM54.708 30.744V19.9926H60.1912V21.7896H56.5358V24.2471H59.8687V26.0287H56.5358V28.9469H60.2987V30.744H54.708ZM63.9175 30.744V19.9926H69.4007V21.7896H65.7452V24.2471H69.0781V26.0287H65.7452V28.9469H69.5082V30.744H63.9175ZM72.7737 19.9926H74.6168V24.9229L77.75 19.9926H79.7006L76.4138 25.0611L79.931 30.744H77.8575L74.6168 25.2147V30.744H72.7737V19.9926ZM82.5975 30.744V19.9926H84.4406V28.9469H88.5721V30.744H82.5975ZM90.6703 19.9926H92.6977L94.3104 23.6788L95.9078 19.9926H97.9505L95.2473 25.7062V30.744H93.3582V25.7062L90.6703 19.9926Z" fill="black"/>
<path d="M9.4231 31.7393C9.68269 31.6934 9.9483 31.6934 10.2079 31.7393C12.705 32.7511 15.1955 33.7888 17.6861 34.8201C17.8298 34.8983 17.9822 34.9592 18.1401 35.0017C18.3153 35.0017 18.6006 35.0406 18.6525 34.9563C18.6909 34.8671 18.7107 34.7711 18.7107 34.6741C18.7107 34.5771 18.6909 34.4811 18.6525 34.392C17.965 32.9521 17.2581 31.5252 16.5511 30.0854C16.8754 29.6054 17.0765 29.7546 17.2775 30.1762C17.8872 31.4733 18.5098 32.6992 19.1325 33.9509C19.1864 34.1172 19.2889 34.2636 19.4268 34.3711C19.5646 34.4787 19.7315 34.5425 19.9059 34.5543C20.0804 34.5662 20.2544 34.5256 20.4055 34.4377C20.5566 34.3498 20.678 34.2187 20.754 34.0612C22.8943 30.8788 25.026 27.6812 27.1491 24.4686C27.3177 24.2221 27.4928 23.9756 27.6679 23.7357C28.3814 23.9367 28.0117 24.2805 27.8106 24.5853C25.9384 27.4088 24.0661 30.2259 22.1938 33.0364C21.9474 33.4061 21.7268 33.7888 21.4609 34.1326C21.2585 34.32 21.1277 34.5721 21.091 34.8455C21.0543 35.1189 21.114 35.3966 21.2599 35.6308C21.3253 35.8269 21.3501 36.0343 21.3325 36.2403C21.315 36.4463 21.2556 36.6465 21.1579 36.8287C21.0602 37.0109 20.9263 37.1712 20.7645 37.2998C20.6026 37.4284 20.4162 37.5226 20.2166 37.5766C20.0171 37.6306 19.8086 37.6432 19.604 37.6137C19.3993 37.5843 19.2029 37.5133 19.0267 37.4052C18.8505 37.2971 18.6982 37.1541 18.5792 36.9851C18.4602 36.816 18.377 36.6244 18.3347 36.4221C18.2634 35.8383 17.9521 35.6567 17.5045 35.4686C14.8064 34.366 12.1147 33.244 9.4231 32.1349V31.7393Z" fill="#2F62F6"/>
<path d="M38.0973 20.5965C37.7374 20.8334 37.309 20.944 36.8794 20.9112C36.4498 20.8783 36.0432 20.7038 35.7235 20.4149C35.578 20.2175 35.362 20.0838 35.1204 20.0415C34.8788 19.9992 34.6302 20.0517 34.4263 20.1879C33.6999 20.5122 32.9475 20.7911 32.1951 21.0441C31.9372 21.0832 31.6748 21.0832 31.4168 21.0441C31.6179 20.8495 31.7801 20.5836 32.02 20.4798C32.8243 20.1231 33.6674 19.8312 34.4717 19.5004C34.6792 19.4161 34.809 19.1631 34.9776 18.9815C34.7765 18.8324 34.6014 18.6054 34.3809 18.547C32.1108 17.9546 29.8256 17.3795 27.5253 16.8217C27.2186 16.8046 26.9117 16.851 26.6238 16.9579C26.494 16.9904 26.3708 17.146 26.2606 17.1331C25.1839 16.9644 24.7493 17.84 24.1786 18.4302C21.9345 20.7976 19.7228 23.1714 17.4786 25.5323C17.1868 25.8436 16.9857 26.0706 17.2257 26.5765C17.3898 26.9623 17.4148 27.3931 17.2965 27.7953C17.1782 28.1975 16.9239 28.5462 16.5771 28.7817C16.2612 29.0338 15.869 29.1711 15.4648 29.1711C15.0606 29.1711 14.6684 29.0338 14.3524 28.7817C14.2022 28.6291 14.0015 28.5364 13.7878 28.5209C13.5742 28.5054 13.3622 28.5681 13.1915 28.6974C12.011 29.2941 10.8176 29.8649 9.63719 30.4421L9.41019 30.3189C9.51396 30.1178 9.55936 29.8195 9.728 29.7287C10.5686 29.2495 11.4346 28.8164 12.3224 28.4315C13.2174 28.0748 13.8401 27.6078 13.5287 26.4014C12.1797 25.5712 10.7852 24.6826 9.3583 23.8524C9.13129 23.7227 8.76808 23.8524 8.47622 23.8135C7.98978 23.7357 7.37362 23.7552 7.06878 23.4698C6.92464 23.2903 6.82631 23.0784 6.78225 22.8524C6.73818 22.6264 6.74971 22.3931 6.81583 22.1726C6.99743 21.7964 7.58116 21.6018 8.00275 21.3424C8.26867 21.1738 8.65134 21.0895 8.81997 20.856C9.98743 19.2539 11.1095 17.613 12.238 15.9915C12.4586 15.6737 12.6596 15.343 13.0358 15.9137C11.8294 17.6325 10.6231 19.3707 9.41019 21.1024C9.28219 21.2858 9.19286 21.4933 9.14764 21.7123C9.10242 21.9313 9.10225 22.1572 9.14716 22.3762C9.19206 22.5953 9.2811 22.8029 9.40883 22.9865C9.53656 23.17 9.70033 23.3256 9.89014 23.4438L13.9763 25.9669C14.2752 25.6726 14.6533 25.4717 15.0645 25.3888C15.4757 25.3059 15.9021 25.3445 16.2917 25.4999C16.4409 25.5582 16.7522 25.4026 16.8949 25.2534C19.4893 22.5207 22.0836 19.7771 24.678 17.0228C25.132 16.5299 25.0477 16.1991 24.4121 16.0305C21.9409 15.3819 19.4633 14.7333 16.9857 14.0847C16.7717 14.0328 16.4798 14.2209 16.2398 14.3312C16.1296 14.383 16.0712 14.5906 15.9609 14.623C14.8065 14.9668 15.0853 15.8553 15.1437 16.6855C15.2864 18.8843 15.4161 21.0765 15.5199 23.2817C15.4949 23.6223 15.4251 23.9581 15.3124 24.2805C15.1356 23.9764 15.0024 23.6489 14.9167 23.3076C14.7481 20.9143 14.6313 18.521 14.4757 16.1277C14.4521 15.8572 14.3641 15.5962 14.2189 15.3666C14.0737 15.1371 13.8756 14.9457 13.6412 14.8085C13.4068 14.6713 13.143 14.5923 12.8717 14.5781C12.6005 14.5639 12.3298 14.6148 12.0824 14.7268C10.0977 15.6802 8.11301 16.6726 6.12184 17.5676C5.86579 17.6336 5.60003 17.6533 5.33704 17.626C5.33704 17.5222 5.29813 17.412 5.28516 17.3082L8.90429 15.5246C9.89663 15.0446 10.8825 14.5452 11.8878 14.0977C12.3548 13.8901 12.6596 13.6761 12.5883 13.0794C12.6133 12.6866 12.6963 12.2998 12.8347 11.9314C11.7581 10.9325 10.6166 9.86237 9.46208 8.80516C9.1767 8.54573 8.90429 8.31224 9.46208 7.98794C10.5647 9.00623 11.6803 10.018 12.7699 11.0558C12.893 11.2136 13.0683 11.3224 13.2644 11.3628C13.4605 11.4032 13.6645 11.3726 13.8401 11.2763C14.1119 11.1578 14.4073 11.103 14.7036 11.1161C14.9998 11.1292 15.2892 11.2099 15.5495 11.352C15.8099 11.494 16.0343 11.6937 16.2056 11.9358C16.377 12.1778 16.4907 12.4558 16.5382 12.7486C16.5451 12.9579 16.6278 13.1575 16.771 13.3102C16.9142 13.463 17.1081 13.5584 17.3165 13.5788C19.6644 14.169 22.0058 14.7916 24.3472 15.3884C24.6056 15.4207 24.8671 15.4207 25.1255 15.3884C25.1006 15.1306 25.0484 14.8762 24.9699 14.6295C23.5365 11.1985 22.0836 7.80634 20.6567 4.40773C20.5963 4.15078 20.5787 3.8856 20.6048 3.62293L20.9162 3.57104C21.0394 3.83697 21.1691 4.0964 21.2859 4.36232C22.6955 7.65284 24.0964 10.9412 25.4887 14.2274C25.6638 14.636 25.8065 15.0381 26.3514 15.09C26.4458 15.1085 26.535 15.1477 26.6124 15.205C26.6898 15.2622 26.7535 15.3359 26.7989 15.4208C26.9935 16.1667 27.6356 16.1926 28.2063 16.3418C30.3142 16.8736 32.4157 17.412 34.5301 17.9114C34.6727 17.9333 34.8182 17.9256 34.9577 17.8887C35.0972 17.8519 35.2276 17.7868 35.3408 17.6973C35.6651 17.4184 35.9894 17.146 35.73 16.5299C34.8219 14.4998 34.0047 12.4243 33.1356 10.3683C33.0318 10.1153 32.941 9.86237 32.8437 9.62239C33.3561 9.16189 33.4923 9.55753 33.6026 9.8948C34.4587 11.9768 35.3343 14.0587 36.1969 16.1537C36.385 16.6142 36.5666 16.9125 37.1763 16.8996C37.5942 16.9065 37.9977 17.0535 38.3223 17.3169C38.6468 17.5803 38.8736 17.9449 38.9664 18.3524C39.0727 18.7704 39.0461 19.2111 38.8903 19.6133C38.7346 20.0155 38.4574 20.3591 38.0973 20.5965Z" fill="#5095F1"/>
<path d="M17.8936 2.82522L9.53975 6.28869C9.13114 6.45732 8.72901 6.56109 8.65118 7.12537C8.61619 7.25611 8.54928 7.37611 8.45645 7.4746C8.36362 7.57309 8.24778 7.64698 8.11934 7.68964C7.47075 7.7999 7.34103 8.28634 7.13997 8.7663C6.08277 11.3607 5.02557 13.8966 3.94891 16.4586C3.85376 16.6309 3.8151 16.8288 3.83837 17.0243C3.86164 17.2198 3.94568 17.403 4.07863 17.5482C4.42456 18.0279 4.59619 18.6115 4.56507 19.2021C4.5199 19.4091 4.5475 19.6254 4.6432 19.8144C4.7389 20.0034 4.89685 20.1537 5.09043 20.2399C5.38342 20.3923 5.65405 20.5844 5.89468 20.8106C6.01791 20.9468 5.99845 21.2192 6.04385 21.4592L5.80387 21.4722C5.3758 21.1738 4.96071 20.8236 4.50669 20.5966C4.29924 20.5198 4.07928 20.4824 3.8581 20.4863C3.8225 20.6836 3.8225 20.8857 3.8581 21.083C4.11754 21.777 4.41589 22.458 4.70127 23.1391L6.93891 28.5548C7.03619 28.7948 7.15943 29.0282 7.37346 29.4693C7.45129 27.8478 7.51615 26.4598 7.58101 25.0848C8.19068 24.8254 8.1842 25.1886 8.17123 25.5842C8.11285 26.8814 8.04799 28.224 8.03502 29.5471C8.03502 29.839 8.25554 30.1244 8.29446 30.4292C8.33337 30.734 8.46958 31.3243 8.29446 31.5967C8.15373 31.7195 7.9826 31.8024 7.79893 31.8366C7.61526 31.8709 7.42578 31.8552 7.25023 31.7912C6.97782 31.6031 6.90648 31.0843 6.81567 30.6951C6.72487 30.306 6.86756 29.9946 6.75082 29.7028C5.64173 26.9528 4.50669 24.2157 3.37166 21.4657C3.32896 21.2869 3.22384 21.1292 3.07521 21.021C2.92658 20.9128 2.74421 20.8612 2.56092 20.8755C2.05333 20.8465 1.57605 20.6244 1.22694 20.2548C0.877839 19.8851 0.68335 19.396 0.68335 18.8875C0.68335 18.3791 0.877839 17.8899 1.22694 17.5203C1.57605 17.1507 2.05333 16.9286 2.56092 16.8996C2.74583 16.9145 2.93002 16.8633 3.08081 16.7553C3.23159 16.6472 3.33924 16.4893 3.38463 16.3094C4.50669 13.5788 5.62227 10.8742 6.72487 8.15014C6.82865 7.89719 6.68596 7.55344 6.72487 7.25508C6.72487 6.82053 6.72487 6.24977 6.94539 6.00331C7.16591 5.75684 7.74964 5.82819 8.19068 5.79576C8.5116 5.83531 8.83616 5.83531 9.15708 5.79576C11.8098 4.72558 14.4496 3.62298 17.0893 2.55281C17.4331 2.35823 17.8352 2.05988 17.8936 2.82522Z" fill="#2F62F5"/>
<path d="M35.8272 22.5099C34.9191 24.7475 33.9852 26.9786 32.9993 29.3719C33.1401 29.4267 33.2714 29.5033 33.3885 29.5989C33.5831 29.7849 33.738 30.0083 33.8439 30.2558C33.9497 30.5033 34.0043 30.7696 34.0043 31.0388C34.0043 31.308 33.9497 31.5743 33.8439 31.8218C33.738 32.0693 33.5831 32.2928 33.3885 32.4787C33.2069 32.668 32.9888 32.8186 32.7475 32.9215C32.5062 33.0245 32.2466 33.0775 31.9843 33.0775C31.7219 33.0775 31.4623 33.0245 31.221 32.9215C30.9797 32.8186 30.7617 32.668 30.5801 32.4787C30.4697 32.3457 30.3149 32.2573 30.1443 32.2299C29.9738 32.2025 29.799 32.2379 29.6526 32.3295C27.4214 33.2635 25.1903 34.191 22.9462 35.0925C22.6866 35.1383 22.421 35.1383 22.1614 35.0925C22.1614 34.9952 22.1614 34.8979 22.1614 34.8006C22.81 34.5217 23.4585 34.2364 24.1071 33.9704C25.8324 33.2505 27.5576 32.5306 29.2959 31.8301C29.7239 31.655 30.0028 31.5058 30.0288 30.9221C30.0807 30.4085 30.31 29.9291 30.6773 29.5665C30.8342 29.4429 30.9437 29.269 30.9875 29.0741C31.0312 28.8791 31.0064 28.6751 30.9173 28.4963C30.4114 26.9267 29.9639 25.3442 29.4839 23.7616C29.3198 23.4037 29.0347 23.1152 28.6788 22.9467C28.3229 22.7782 27.919 22.7407 27.5382 22.8406C24.6649 23.9497 21.7982 25.0718 18.9249 26.1744C18.6694 26.2168 18.4086 26.2168 18.1531 26.1744C18.1531 26.0512 18.1531 25.9344 18.1531 25.8177L27.1425 22.3218C27.3518 22.2588 27.5436 22.1482 27.703 21.9987C27.8623 21.8491 27.9848 21.6646 28.0608 21.4598C28.1369 21.2549 28.1644 21.0352 28.1412 20.8179C28.1181 20.6006 28.0449 20.3916 27.9273 20.2074C27.4905 19.4774 27.1318 18.7035 26.8572 17.8984C27.0582 17.9762 27.3306 17.9957 27.4409 18.1384C27.7156 18.5461 27.9606 18.9731 28.1738 19.4161C28.5046 20.0258 28.7705 20.5965 29.6526 20.7133C30.5347 20.83 30.7746 21.9067 30.3012 22.7044C30.1285 22.9808 30.0595 23.3095 30.1066 23.6319C30.5541 25.2469 31.0406 26.8749 31.5529 28.4444C31.6243 28.6715 31.9032 28.9698 32.0978 28.9828C32.2279 28.9578 32.3504 28.9025 32.4552 28.8214C32.56 28.7403 32.6442 28.6356 32.7009 28.5158C33.5895 26.4468 34.4327 24.3518 35.2953 22.2828C35.3861 22.0623 35.665 21.9261 35.8531 21.751C35.8851 22.0037 35.8763 22.2599 35.8272 22.5099Z" fill="#2F62F5"/>
<path d="M33.7906 7.31989C33.6908 7.715 33.4543 8.06202 33.1231 8.29945C32.7919 8.53689 32.3873 8.64941 31.981 8.61707C31.2287 8.48735 30.9692 8.85056 30.6449 9.36944C29.5812 11.0623 28.4851 12.7421 27.402 14.4155C26.7534 14.2793 26.948 13.9874 27.1685 13.6501C28.1868 12.0805 29.1921 10.511 30.2039 8.93488C30.3531 8.70787 30.4893 8.4679 30.5476 8.37709C30.366 7.7285 30.2363 7.15774 30.0482 6.6259C29.9754 6.41401 29.8247 6.23778 29.6266 6.13297C26.7901 4.92227 23.9493 3.72886 21.1042 2.55276C20.7679 2.48521 20.4187 2.5283 20.1089 2.6756C19.7991 2.8229 19.5453 3.06649 19.3854 3.36998C18.419 5.48438 17.4786 7.58581 16.5057 9.68724L16.1425 10.4137H15.8571C15.8107 10.1716 15.8107 9.92286 15.8571 9.68076C16.804 7.5469 17.8029 5.43249 18.7303 3.29215C18.8648 2.9012 18.8806 2.4792 18.7757 2.07928C18.6856 1.80707 18.7025 1.51076 18.823 1.25056C18.9435 0.990349 19.1585 0.785755 19.4243 0.67833C19.688 0.573712 19.982 0.575406 20.2445 0.683056C20.507 0.790706 20.7175 0.995927 20.8318 1.25558C21.0317 1.61137 21.3256 1.90531 21.6814 2.10523C24.5352 3.33755 27.4085 4.49852 30.2817 5.69842C30.4641 5.51868 30.6569 5.34976 30.859 5.19252C31.1866 4.96225 31.5773 4.83868 31.9778 4.83868C32.3783 4.83868 32.769 4.96225 33.0966 5.19252C33.4172 5.43259 33.6558 5.76573 33.78 6.14646C33.9042 6.52719 33.9079 6.93698 33.7906 7.31989Z" fill="#2F62F5"/>
</svg>
