<svg width="17" height="18" viewBox="0 0 17 18" fill="none" xmlns="http://www.w3.org/2000/svg">
<path d="M9.20833 6.16699V11.8337C9.20833 12.3972 8.98445 12.9377 8.58594 13.3363C8.18742 13.7348 7.64692 13.9587 7.08333 13.9587H5.54625C5.37915 14.4315 5.05028 14.83 4.61776 15.0837C4.18525 15.3375 3.67694 15.4302 3.18269 15.3454C2.68844 15.2607 2.24007 15.0039 1.91684 14.6205C1.59361 14.2371 1.41632 13.7518 1.41632 13.2503C1.41632 12.7489 1.59361 12.2635 1.91684 11.8801C2.24007 11.4968 2.68844 11.24 3.18269 11.1552C3.67694 11.0704 4.18525 11.1631 4.61776 11.4169C5.05028 11.6707 5.37915 12.0692 5.54625 12.542H7.08333C7.27119 12.542 7.45136 12.4674 7.5842 12.3345C7.71704 12.2017 7.79167 12.0215 7.79167 11.8337V6.16699C7.79167 5.60341 8.01555 5.06291 8.41406 4.66439C8.81258 4.26588 9.35308 4.04199 9.91667 4.04199H12.0417V1.91699L15.5833 4.75033L12.0417 7.58366V5.45866H9.91667C9.7288 5.45866 9.54864 5.53329 9.4158 5.66612C9.28296 5.79896 9.20833 5.97913 9.20833 6.16699ZM3.54167 13.9587C3.72953 13.9587 3.9097 13.884 4.04253 13.7512C4.17537 13.6184 4.25 13.4382 4.25 13.2503C4.25 13.0625 4.17537 12.8823 4.04253 12.7495C3.9097 12.6166 3.72953 12.542 3.54167 12.542C3.3538 12.542 3.17364 12.6166 3.0408 12.7495C2.90796 12.8823 2.83333 13.0625 2.83333 13.2503C2.83333 13.4382 2.90796 13.6184 3.0408 13.7512C3.17364 13.884 3.3538 13.9587 3.54167 13.9587Z" fill="#989898"/>
</svg>
