<svg xmlns="http://www.w3.org/2000/svg" width="38" height="58" fill="none" viewBox="0 0 38 58"><g filter="url(#a)"><path fill="#fff" d="M.754 53.57v-4.603l17.284-18.92q3.042-3.324 5.011-5.779 1.969-2.48 2.915-4.653.972-2.199.972-4.602 0-2.762-1.33-4.782-1.304-2.02-3.58-3.119t-5.113-1.1q-3.017 0-5.267 1.253a8.63 8.63 0 0 0-3.452 3.452q-1.202 2.225-1.202 5.216H.958q0-4.602 2.123-8.08 2.121-3.477 5.778-5.42Q12.54.49 17.118.49q4.602 0 8.156 1.943 3.553 1.943 5.574 5.241 2.02 3.3 2.02 7.338a15.8 15.8 0 0 1-1.049 5.651q-1.023 2.736-3.58 6.11-2.53 3.35-7.03 8.183L9.446 47.536v.408h24.34v5.625z"/></g><defs><filter id="a" width="37.034" height="57.079" x=".754" y=".49" color-interpolation-filters="sRGB" filterUnits="userSpaceOnUse"><feFlood flood-opacity="0" result="BackgroundImageFix"/><feColorMatrix in="SourceAlpha" result="hardAlpha" values="0 0 0 0 0 0 0 0 0 0 0 0 0 0 0 0 0 0 127 0"/><feOffset dx="4" dy="4"/><feComposite in2="hardAlpha" operator="out"/><feColorMatrix values="0 0 0 0 1 0 0 0 0 1 0 0 0 0 1 0 0 0 0.5 0"/><feBlend in2="BackgroundImageFix" result="effect1_dropShadow_13156_9312"/><feBlend in="SourceGraphic" in2="effect1_dropShadow_13156_9312" result="shape"/></filter></defs></svg>