<svg xmlns="http://www.w3.org/2000/svg" width="40" height="59" fill="none" viewBox="0 0 40 59"><g filter="url(#a)"><path fill="#fff" d="M18.78 54.285q-5.062 0-9.025-1.738-3.937-1.74-6.265-4.833-2.301-3.12-2.505-7.236h6.443q.204 2.532 1.739 4.373 1.533 1.815 4.014 2.812 2.48.997 5.497.997 3.375 0 5.983-1.176t4.09-3.273 1.484-4.858q0-2.889-1.432-5.088-1.432-2.224-4.193-3.477-2.762-1.253-6.75-1.253h-4.193V23.91h4.193q3.12 0 5.471-1.125 2.378-1.125 3.708-3.17 1.355-2.046 1.355-4.807 0-2.659-1.176-4.628-1.176-1.968-3.324-3.068-2.122-1.1-5.011-1.1-2.71 0-5.114.998-2.377.97-3.886 2.838-1.51 1.84-1.637 4.449H2.11q.153-4.117 2.48-7.21 2.327-3.12 6.085-4.859Q14.46.49 18.985.49q4.857 0 8.335 1.969 3.477 1.943 5.344 5.139A13.46 13.46 0 0 1 34.53 14.5q0 4.423-2.326 7.543-2.302 3.12-6.265 4.32v.41q4.96.818 7.748 4.219 2.787 3.375 2.786 8.36 0 4.27-2.326 7.67-2.3 3.376-6.29 5.32-3.99 1.942-9.077 1.942"/></g><defs><filter id="a" width="39.489" height="57.795" x=".985" y=".49" color-interpolation-filters="sRGB" filterUnits="userSpaceOnUse"><feFlood flood-opacity="0" result="BackgroundImageFix"/><feColorMatrix in="SourceAlpha" result="hardAlpha" values="0 0 0 0 0 0 0 0 0 0 0 0 0 0 0 0 0 0 127 0"/><feOffset dx="4" dy="4"/><feComposite in2="hardAlpha" operator="out"/><feColorMatrix values="0 0 0 0 1 0 0 0 0 1 0 0 0 0 1 0 0 0 0.5 0"/><feBlend in2="BackgroundImageFix" result="effect1_dropShadow_13156_9328"/><feBlend in="SourceGraphic" in2="effect1_dropShadow_13156_9328" result="shape"/></filter></defs></svg>