<svg width="20" height="21" viewBox="0 0 20 21" fill="none" xmlns="http://www.w3.org/2000/svg">
<g clip-path="url(#clip0_13766_9256)">
<path d="M7.9375 5.5759C9.27625 7.22048 10.62 9.55257 11.25 10.9197H18.3333C17.2367 8.7384 14.6975 4.76965 12.4029 2.56548C12.1501 2.31936 11.8112 2.18164 11.4583 2.18164C11.1055 2.18164 10.7666 2.31936 10.5138 2.56548C9.65958 3.38548 8.77208 4.45007 7.9375 5.5759Z" fill="white"/>
<path d="M15.9871 2.22332C15.1321 3.15623 14.1617 4.95665 13.75 5.93165C13.75 5.93165 13.96 6.02248 14.7375 6.0804C14.3217 6.85957 13.9617 7.65207 13.75 8.20415C13.75 8.20415 14.2046 8.41957 16.25 8.41957C18.2954 8.41957 18.75 8.20415 18.75 8.20415C18.5383 7.65207 18.1783 6.85957 17.7625 6.0804C18.54 6.02248 18.75 5.93207 18.75 5.93207C18.3383 4.95665 17.3679 3.15623 16.5129 2.22332C16.4797 2.18652 16.4392 2.15711 16.3939 2.13698C16.3486 2.11685 16.2996 2.10645 16.25 2.10645C16.2004 2.10645 16.1514 2.11685 16.1061 2.13698C16.0608 2.15711 16.0203 2.18652 15.9871 2.22332Z" fill="#8FBFFA"/>
<path d="M2.08335 10.9194C2.76168 9.4477 4.26751 6.85686 5.70293 5.2102C6.22335 4.61353 7.11001 4.61353 7.63043 5.2102C9.06585 6.85686 10.5721 9.4477 11.25 10.9194H2.08335ZM17.5 10.9194C18.1904 10.9194 18.7596 11.4819 18.6621 12.1656C18.0571 16.4077 14.4096 19.6694 10 19.6694C5.59085 19.6694 1.94335 16.4077 1.33835 12.1656C1.24085 11.4823 1.8096 10.9194 2.50001 10.9194H17.5Z" fill="white"/>
<path d="M10.1783 10.9199H17.5C18.1904 10.9199 18.7596 11.4824 18.6621 12.1662C18.2108 15.3291 16.0683 17.947 13.1796 19.0745C13.1054 19.047 13.0658 19.0312 13.0658 19.0312C12.1633 17.5162 12.9242 16.6149 13.5617 15.8595C13.9708 15.3749 14.3296 14.9499 14.1667 14.4616C13.9458 13.9699 13.3208 13.8045 12.6288 13.6212C11.4667 13.3128 10.1163 12.9549 10.1783 10.9199ZM6.46793 10.9199C6.88293 11.6366 7.0221 12.4116 6.66668 13.2116C6.30376 14.0283 5.62418 14.3312 4.93876 14.6366C4.19918 14.9666 3.4521 15.2995 3.0871 16.2845C2.15545 15.0875 1.55264 13.6678 1.33835 12.1662C1.24085 11.4828 1.8096 10.9199 2.50001 10.9199H6.46793Z" fill="#8FBFFA"/>
<path d="M2.08334 10.9199C2.76168 9.44867 4.26751 6.85784 5.70293 5.21117C6.22334 4.61451 7.11001 4.61451 7.63043 5.21117C9.06584 6.85742 10.5721 9.44867 11.25 10.9199" stroke="#2859C5" stroke-width="1.44751" stroke-linecap="round" stroke-linejoin="round"/>
<path d="M7.93874 5.57693C8.78416 4.41985 9.68374 3.32776 10.5471 2.51276C10.7922 2.27772 11.1187 2.14648 11.4583 2.14648C11.7979 2.14648 12.1244 2.27772 12.3696 2.51276C12.4818 2.61888 12.5947 2.72957 12.7083 2.84485M17.5 10.9194C18.1904 10.9194 18.7592 11.4819 18.6617 12.1657C18.0571 16.4078 14.4092 19.6694 9.99999 19.6694C5.59082 19.6694 1.94291 16.4078 1.33749 12.1657C1.24041 11.4823 1.80957 10.9194 2.49999 10.9194H17.5Z" stroke="#2859C5" stroke-width="1.44751" stroke-linecap="round" stroke-linejoin="round"/>
<path d="M6.4679 10.9196C6.88248 11.6362 7.02207 12.4112 6.66665 13.2112C6.30373 14.0279 5.62415 14.3308 4.93832 14.6362C4.19873 14.9662 3.45165 15.2992 3.08707 16.2842M10.1783 10.9196C10.1166 12.9546 11.4666 13.3125 12.6283 13.6208C13.3204 13.8042 13.9454 13.97 14.1666 14.4612C14.3291 14.9496 13.9708 15.3742 13.5621 15.8592C12.9241 16.6146 12.1633 17.5158 13.0658 19.0308M16.25 8.41957C14.2046 8.41957 13.75 8.20415 13.75 8.20415C13.9616 7.65207 14.3216 6.85957 14.7375 6.0804C13.96 6.02248 13.75 5.93165 13.75 5.93165C14.1616 4.95665 15.1321 3.15623 15.9871 2.22332C16.0203 2.18652 16.0608 2.15711 16.1061 2.13698C16.1514 2.11685 16.2004 2.10645 16.25 2.10645C16.2995 2.10645 16.3486 2.11685 16.3938 2.13698C16.4391 2.15711 16.4797 2.18652 16.5129 2.22332C17.3679 3.15623 18.3383 4.95665 18.75 5.93207C18.75 5.93207 18.54 6.02248 17.7625 6.0804C18.1783 6.85957 18.5383 7.65207 18.75 8.20415C18.75 8.20415 18.2954 8.41957 16.25 8.41957ZM16.25 8.41957V10.9196" stroke="#2859C5" stroke-width="1.44751" stroke-linecap="round" stroke-linejoin="round"/>
</g>
<defs>
<clipPath id="clip0_13766_9256">
<rect width="20" height="20" fill="white" transform="translate(0 0.919922)"/>
</clipPath>
</defs>
</svg>
