<svg width="34" height="34" viewBox="0 0 34 34" fill="none" xmlns="http://www.w3.org/2000/svg">
<path d="M17 33.4111C26.1852 33.4111 33.6313 25.965 33.6313 16.7798C33.6313 7.59453 26.1852 0.148438 17 0.148438C7.81475 0.148438 0.368652 7.59453 0.368652 16.7798C0.368652 25.965 7.81475 33.4111 17 33.4111Z" fill="url(#paint0_linear_13560_8078)"/>
<path d="M11.6266 17.9949L13.5998 23.4563C13.5998 23.4563 13.8465 23.9673 14.1106 23.9673C14.3748 23.9673 18.3038 19.8799 18.3038 19.8799L22.673 11.4409L11.697 16.5851L11.6266 17.9949Z" fill="#C8DAEA"/>
<path d="M14.2428 19.396L13.864 23.4216C13.864 23.4216 13.7054 24.6551 14.9387 23.4216C16.1719 22.1881 17.3523 21.2369 17.3523 21.2369" fill="#A9C6D8"/>
<path d="M11.6622 18.1903L7.60328 16.8678C7.60328 16.8678 7.1182 16.671 7.2744 16.2247C7.30655 16.1327 7.37141 16.0544 7.56544 15.9198C8.46478 15.293 24.2115 9.6332 24.2115 9.6332C24.2115 9.6332 24.6561 9.48338 24.9183 9.58303C24.9832 9.60311 25.0415 9.64006 25.0874 9.6901C25.1333 9.74015 25.1651 9.80148 25.1795 9.86784C25.2079 9.98504 25.2197 10.1056 25.2147 10.2261C25.2135 10.3303 25.2009 10.4269 25.1913 10.5784C25.0954 12.1258 22.2254 23.6746 22.2254 23.6746C22.2254 23.6746 22.0537 24.3504 21.4385 24.3735C21.2873 24.3784 21.1366 24.3528 20.9956 24.2982C20.8545 24.2437 20.7258 24.1612 20.6173 24.0559C19.41 23.0174 15.2372 20.2131 14.3151 19.5963C14.2943 19.5822 14.2768 19.5637 14.2638 19.5422C14.2507 19.5207 14.2424 19.4966 14.2395 19.4716C14.2266 19.4066 14.2972 19.3261 14.2972 19.3261C14.2972 19.3261 21.5632 12.8676 21.7565 12.1896C21.7715 12.137 21.715 12.1111 21.639 12.1341C21.1564 12.3117 12.7906 17.5948 11.8673 18.1778C11.8008 18.1979 11.7306 18.2022 11.6622 18.1903Z" fill="white"/>
<defs>
<linearGradient id="paint0_linear_13560_8078" x1="17" y1="33.4111" x2="17" y2="0.148438" gradientUnits="userSpaceOnUse">
<stop stop-color="#1D93D2"/>
<stop offset="1" stop-color="#38B0E3"/>
</linearGradient>
</defs>
</svg>
