<svg width="189" height="40" viewBox="0 0 189 40" fill="none" xmlns="http://www.w3.org/2000/svg">
<g clip-path="url(#clip0_13589_8064)">
<path d="M4.67017 5.03285C4.67017 2.56478 6.67093 0.564026 9.13899 0.564026H43.493C43.6473 0.564026 43.7723 0.689073 43.7723 0.843327V35.1974C43.7723 37.6654 41.7716 39.6662 39.3035 39.6662H4.94947C4.79522 39.6662 4.67017 39.5411 4.67017 39.3869V5.03285Z" fill="white"/>
<path d="M4.68819 5.03291C4.68819 2.56485 6.68895 0.564087 9.15701 0.564087H43.7904V35.1974C43.7904 37.6655 41.7896 39.6663 39.3215 39.6663H4.68819V5.03291Z" fill="#027861"/>
<path d="M43.7903 35.1974C43.7903 37.6655 41.7502 39.6663 39.2337 39.6663H4.68819C30.0455 33.8371 21.9438 23.032 29.511 0.564087H43.7903V35.1974Z" fill="url(#paint0_linear_13589_8064)"/>
<path d="M28.7331 2.03659C28.8652 1.86566 29.1194 1.8542 29.266 2.01293L39.2666 12.845C39.4682 13.0633 39.3225 13.4176 39.0256 13.4306L35.1561 13.5999L34.3858 16.6432C34.1549 17.7062 33.8293 18.7464 33.4117 19.7508L32.1989 22.7907C31.7728 23.7734 31.1426 24.7166 30.6218 25.6753L29.8072 27.0795C29.4988 27.5288 29.143 27.9635 28.8178 28.3824C28.1848 29.2639 27.49 30.1001 26.7393 30.8837C23.8459 33.9527 20.2743 36.3023 16.3104 37.7435C12.5932 39.1144 8.64434 39.8278 4.68601 39.659C8.35079 38.8265 11.8092 37.1771 14.8659 34.9908C17.7435 32.9711 20.0959 30.2918 21.7265 27.1772C22.117 26.4353 22.4545 25.6662 22.7363 24.8766C22.8918 24.4986 23.0632 24.1307 23.2023 23.7359L23.4941 22.5251C23.7221 21.7344 23.9068 20.9317 24.0468 20.1208L24.2991 17.6351C24.4006 16.8083 24.4221 15.9733 24.3637 15.1423L24.3427 14.0731L20.0086 14.2638C19.7118 14.2768 19.5351 13.9369 19.7168 13.7018L28.7331 2.03659ZM29.592 1.16878L29.5491 1.17056L29.5701 1.14575L29.592 1.16878Z" fill="white"/>
</g>
<path d="M52.4419 13.4695C51.8714 13.4695 51.5862 13.1843 51.5862 12.6139V11.4159C51.5862 10.8455 51.8714 10.5602 52.4419 10.5602H62.5103C63.0808 10.5602 63.366 10.8455 63.366 11.4159V12.6139C63.366 13.1843 63.0808 13.4695 62.5103 13.4695H59.0876V28.8146C59.0876 29.3851 58.8024 29.6703 58.2319 29.6703H56.7202C56.1498 29.6703 55.8646 29.3851 55.8646 28.8146V13.4695H52.4419Z" fill="#1E1F1C"/>
<path d="M66.2285 29.6703C65.658 29.6703 65.3728 29.3851 65.3728 28.8146V11.4159C65.3728 10.8455 65.658 10.5602 66.2285 10.5602H71.1914C71.99 10.5602 72.7316 10.6743 73.4161 10.9025C74.1007 11.1307 74.6901 11.4825 75.1845 11.9578C75.6789 12.4142 76.0592 13.0037 76.3254 13.7262C76.6107 14.4298 76.7533 15.2665 76.7533 16.2362V17.3486C76.7533 18.6226 76.4776 19.6969 75.9261 20.5716C75.3937 21.4273 74.6521 22.0643 73.7014 22.4826L77.2382 28.6435C77.3332 28.8336 77.3808 28.9858 77.3808 29.0999C77.3808 29.4802 77.0765 29.6703 76.4681 29.6703H74.7567C74.4905 29.6703 74.2813 29.6038 74.1292 29.4706C73.9771 29.3375 73.825 29.1379 73.6728 28.8717L70.5068 22.996H68.5958V28.8146C68.5958 29.3851 68.3106 29.6703 67.7402 29.6703H66.2285ZM68.5958 13.4695V20.0868H70.9347C72.57 20.0868 73.3876 19.2216 73.3876 17.4912V16.0936C73.3876 15.1999 73.188 14.5439 72.7886 14.1256C72.3893 13.6882 71.7428 13.4695 70.8491 13.4695H68.5958Z" fill="#1E1F1C"/>
<path d="M86.6818 10.5602C87.1191 10.5602 87.4899 10.6458 87.7942 10.8169C88.1174 10.9691 88.3551 11.3208 88.5072 11.8723L92.8997 28.7861C92.9567 28.9953 92.9282 29.1949 92.8141 29.3851C92.7 29.5752 92.4528 29.6703 92.0725 29.6703H90.6464C90.2661 29.6703 90.0094 29.6038 89.8763 29.4706C89.7622 29.3185 89.6671 29.0808 89.5911 28.7576L88.5643 24.5648H82.8883L81.89 28.7576C81.8139 29.0808 81.7094 29.3185 81.5762 29.4706C81.4622 29.6038 81.215 29.6703 80.8347 29.6703H79.4085C79.0282 29.6703 78.781 29.5752 78.667 29.3851C78.5529 29.1949 78.5243 28.9953 78.5814 28.7861L82.9739 11.8723C83.126 11.3208 83.3541 10.9691 83.6584 10.8169C83.9816 10.6458 84.3619 10.5602 84.7993 10.5602H86.6818ZM83.6013 21.6555H87.8797L86.0828 14.1826C86.0448 14.0305 85.9972 13.9354 85.9402 13.8974C85.9022 13.8403 85.8356 13.8118 85.7405 13.8118C85.6455 13.8118 85.5694 13.8403 85.5124 13.8974C85.4743 13.9354 85.4363 14.0305 85.3983 14.1826L83.6013 21.6555Z" fill="#1E1F1C"/>
<path d="M100.313 10.5602C102.499 10.5602 104.106 11.1592 105.133 12.3572C106.16 13.5551 106.673 15.4281 106.673 17.9761V22.2259C106.673 24.793 106.16 26.6754 105.133 27.8734C104.106 29.0713 102.499 29.6703 100.313 29.6703H95.3782C94.8078 29.6703 94.5226 29.3851 94.5226 28.8146V11.4159C94.5226 10.8455 94.8078 10.5602 95.3782 10.5602H100.313ZM97.7456 13.4695V26.761H100.313C101.339 26.761 102.091 26.4663 102.566 25.8768C103.06 25.2874 103.307 24.3651 103.307 23.1101V17.0919C103.307 15.8369 103.06 14.9242 102.566 14.3537C102.091 13.7643 101.339 13.4695 100.313 13.4695H97.7456Z" fill="#1E1F1C"/>
<path d="M113.386 29.6703C110.344 29.6703 108.823 28.1491 108.823 25.1067V11.4159C108.823 10.8455 109.108 10.5602 109.678 10.5602H117.522C118.093 10.5602 118.378 10.8455 118.378 11.4159V12.6139C118.378 13.1843 118.093 13.4695 117.522 13.4695H112.046V18.4324H116.381C116.952 18.4324 117.237 18.7177 117.237 19.2881V20.4861C117.237 21.0565 116.952 21.3417 116.381 21.3417H112.046V24.6503C112.046 25.3919 112.198 25.9339 112.502 26.2761C112.806 26.5994 113.443 26.761 114.413 26.761H117.75C118.321 26.761 118.606 27.0462 118.606 27.6167V28.8146C118.606 29.3851 118.321 29.6703 117.75 29.6703H113.386Z" fill="#1E1F1C"/>
<path d="M121.522 29.629C120.954 29.629 120.67 29.345 120.67 28.777V11.4535C120.67 10.8855 120.954 10.6016 121.522 10.6016H126.463C127.259 10.6016 127.997 10.7152 128.679 10.9423C129.36 11.1695 129.947 11.5198 130.439 11.9931C130.932 12.4475 131.31 13.0344 131.575 13.7539C131.859 14.4544 132.001 15.2874 132.001 16.253V18.7805C132.001 19.6704 131.859 20.4655 131.575 21.166C131.31 21.8476 130.932 22.4345 130.439 22.9268C129.947 23.4001 129.351 23.7693 128.65 24.0344C127.969 24.2805 127.211 24.4035 126.378 24.4035H123.879V28.777C123.879 29.345 123.595 29.629 123.027 29.629H121.522ZM123.879 13.4983V21.5068H126.208C127.117 21.5068 127.751 21.2796 128.111 20.8253C128.47 20.3519 128.65 19.7177 128.65 18.9225V16.111C128.65 15.1644 128.432 14.4922 127.997 14.0947C127.562 13.6971 126.937 13.4983 126.123 13.4983H123.879Z" fill="url(#paint1_linear_13589_8064)"/>
<path d="M133.997 29.629C133.429 29.629 133.145 29.345 133.145 28.777V11.4535C133.145 10.8855 133.429 10.6016 133.997 10.6016H138.938C139.733 10.6016 140.472 10.7152 141.153 10.9423C141.835 11.1695 142.422 11.5198 142.914 11.9931C143.406 12.4475 143.785 13.0344 144.05 13.7539C144.334 14.4544 144.476 15.2874 144.476 16.253V17.3606C144.476 18.6291 144.201 19.6988 143.652 20.5697C143.122 21.4216 142.384 22.0559 141.437 22.4724L144.959 28.6066C145.053 28.7959 145.101 28.9474 145.101 29.061C145.101 29.4397 144.798 29.629 144.192 29.629H142.488C142.223 29.629 142.015 29.5627 141.863 29.4302C141.712 29.2977 141.56 29.0989 141.409 28.8338L138.256 22.9836H136.354V28.777C136.354 29.345 136.07 29.629 135.502 29.629H133.997ZM136.354 13.4983V20.0869H138.682C140.311 20.0869 141.125 19.2254 141.125 17.5026V16.111C141.125 15.2212 140.926 14.568 140.528 14.1515C140.131 13.716 139.487 13.4983 138.597 13.4983H136.354Z" fill="url(#paint2_linear_13589_8064)"/>
<path d="M155.696 16.821C155.696 15.5714 155.45 14.6626 154.958 14.0947C154.484 13.5077 153.737 13.2143 152.714 13.2143C151.692 13.2143 150.935 13.5077 150.442 14.0947C149.969 14.6626 149.732 15.5714 149.732 16.821V23.4096C149.732 24.6591 149.969 25.5774 150.442 26.1643C150.935 26.7323 151.692 27.0163 152.714 27.0163C153.737 27.0163 154.484 26.7323 154.958 26.1643C155.45 25.5774 155.696 24.6591 155.696 23.4096V16.821ZM146.381 17.7013C146.381 15.1644 146.892 13.2995 147.915 12.1067C148.937 10.9139 150.537 10.3176 152.714 10.3176C154.892 10.3176 156.491 10.9139 157.514 12.1067C158.536 13.2995 159.047 15.1644 159.047 17.7013V22.5292C159.047 25.0851 158.536 26.9595 157.514 28.1522C156.491 29.3261 154.892 29.913 152.714 29.913C150.537 29.913 148.937 29.3261 147.915 28.1522C146.892 26.9595 146.381 25.0946 146.381 22.5576V17.7013Z" fill="url(#paint3_linear_13589_8064)"/>
<path d="M171.887 15.7986C171.887 16.6506 171.717 17.4174 171.376 18.0989C171.036 18.7805 170.505 19.3201 169.786 19.7177C170.789 20.0963 171.499 20.6359 171.916 21.3364C172.332 22.0369 172.541 22.87 172.541 23.8356V24.0912C172.541 24.8674 172.446 25.5963 172.257 26.2779C172.086 26.9405 171.783 27.518 171.348 28.0102C170.931 28.5025 170.373 28.9001 169.672 29.203C168.972 29.487 168.101 29.629 167.06 29.629H161.607C161.039 29.629 160.755 29.345 160.755 28.777V11.4535C160.755 10.8855 161.039 10.6016 161.607 10.6016H166.463C167.505 10.6016 168.366 10.7341 169.048 10.9991C169.748 11.2453 170.307 11.5955 170.723 12.0499C171.14 12.5043 171.433 13.0344 171.603 13.6403C171.793 14.2461 171.887 14.8898 171.887 15.5714V15.7986ZM166.662 26.7323C167.23 26.7323 167.675 26.6755 167.997 26.5619C168.338 26.4293 168.593 26.259 168.764 26.0507C168.934 25.8235 169.048 25.5584 169.104 25.2555C169.161 24.9526 169.19 24.6118 169.19 24.2331V23.6936C169.19 23.1634 169.114 22.7375 168.962 22.4156C168.83 22.0748 168.65 21.8192 168.423 21.6488C168.196 21.4595 167.94 21.3364 167.656 21.2796C167.372 21.2039 167.088 21.166 166.804 21.166H163.964V26.7323H166.662ZM166.605 18.4965C167.041 18.4965 167.381 18.4492 167.628 18.3545C167.893 18.2409 168.091 18.0895 168.224 17.9001C168.375 17.6919 168.47 17.4552 168.508 17.1902C168.546 16.9062 168.565 16.5938 168.565 16.253V15.7702C168.565 15.2969 168.508 14.9088 168.394 14.6058C168.3 14.3029 168.158 14.0757 167.968 13.9243C167.798 13.7539 167.599 13.6403 167.372 13.5835C167.164 13.5267 166.946 13.4983 166.719 13.4983H163.964V18.4965H166.605Z" fill="url(#paint4_linear_13589_8064)"/>
<path d="M178.788 29.629C175.759 29.629 174.245 28.1144 174.245 25.0851V11.4535C174.245 10.8855 174.529 10.6016 175.097 10.6016H182.906C183.474 10.6016 183.758 10.8855 183.758 11.4535V12.6463C183.758 13.2143 183.474 13.4983 182.906 13.4983H177.454V18.4397H181.77C182.338 18.4397 182.622 18.7237 182.622 19.2917V20.4845C182.622 21.0524 182.338 21.3364 181.77 21.3364H177.454V24.6307C177.454 25.3691 177.605 25.9087 177.908 26.2495C178.211 26.5713 178.845 26.7323 179.811 26.7323H183.134C183.702 26.7323 183.986 27.0163 183.986 27.5842V28.777C183.986 29.345 183.702 29.629 183.134 29.629H178.788Z" fill="url(#paint5_linear_13589_8064)"/>
<defs>
<linearGradient id="paint0_linear_13589_8064" x1="24.6023" y1="25.4473" x2="31.8106" y2="51.0659" gradientUnits="userSpaceOnUse">
<stop stop-color="#07A95E"/>
<stop offset="1" stop-color="#09816C"/>
</linearGradient>
<linearGradient id="paint1_linear_13589_8064" x1="184.42" y1="22.9522" x2="180.914" y2="3.99436" gradientUnits="userSpaceOnUse">
<stop stop-color="#07A95E"/>
<stop offset="1" stop-color="#09816C"/>
</linearGradient>
<linearGradient id="paint2_linear_13589_8064" x1="184.42" y1="22.9522" x2="180.914" y2="3.99436" gradientUnits="userSpaceOnUse">
<stop stop-color="#07A95E"/>
<stop offset="1" stop-color="#09816C"/>
</linearGradient>
<linearGradient id="paint3_linear_13589_8064" x1="184.42" y1="22.9522" x2="180.914" y2="3.99436" gradientUnits="userSpaceOnUse">
<stop stop-color="#07A95E"/>
<stop offset="1" stop-color="#09816C"/>
</linearGradient>
<linearGradient id="paint4_linear_13589_8064" x1="184.42" y1="22.9522" x2="180.914" y2="3.99436" gradientUnits="userSpaceOnUse">
<stop stop-color="#07A95E"/>
<stop offset="1" stop-color="#09816C"/>
</linearGradient>
<linearGradient id="paint5_linear_13589_8064" x1="184.42" y1="22.9522" x2="180.914" y2="3.99436" gradientUnits="userSpaceOnUse">
<stop stop-color="#07A95E"/>
<stop offset="1" stop-color="#09816C"/>
</linearGradient>
<clipPath id="clip0_13589_8064">
<path d="M4.67017 5.03285C4.67017 2.56478 6.67093 0.564026 9.13899 0.564026H43.493C43.6473 0.564026 43.7723 0.689073 43.7723 0.843327V35.1974C43.7723 37.6654 41.7716 39.6662 39.3035 39.6662H4.94947C4.79522 39.6662 4.67017 39.5411 4.67017 39.3869V5.03285Z" fill="white"/>
</clipPath>
</defs>
</svg>
